<svg width="22" height="21" viewBox="0 0 22 21" fill="none" xmlns="http://www.w3.org/2000/svg">
<g clip-path="url(#clip0_1_22)">
<path d="M11.6534 3.54966C7.58403 3.54966 3.89367 6.03967 1.17056 10.0841C0.948355 10.4155 0.948355 10.8784 1.17056 11.2097C3.89367 15.259 7.58403 17.7491 11.6534 17.7491C15.7229 17.7491 19.4132 15.259 22.1363 11.2146C22.3585 10.8832 22.3585 10.4203 22.1363 10.089C19.4132 6.03967 15.7229 3.54966 11.6534 3.54966ZM11.9454 15.6489C9.24404 15.8389 7.01327 13.3489 7.18319 10.3229C7.32261 7.82799 9.13076 5.80577 11.3615 5.64984C14.0629 5.4598 16.2936 7.94981 16.1237 10.9758C15.9799 13.4658 14.1718 15.4881 11.9454 15.6489ZM11.8103 13.3391C10.3551 13.4415 9.15254 12.1015 9.2484 10.4739C9.32246 9.12904 10.2984 8.0424 11.501 7.95469C12.9562 7.85236 14.1587 9.19238 14.0629 10.8199C13.9844 12.1697 13.0085 13.2563 11.8103 13.3391Z" fill="#292929"/>
<path d="M2.86334 1.85926L19.8225 18.8184" stroke="#292929" stroke-width="1.77492" stroke-linecap="square"/>
</g>
<defs>
<clipPath id="clip0_1_22">
<rect width="21.2991" height="20.1158" fill="white" transform="translate(0.00390625 -0.000114441)"/>
</clipPath>
</defs>
</svg>
